<svg xmlns="http://www.w3.org/2000/svg" xmlns:xlink="http://www.w3.org/1999/xlink" viewBox="0 0 212.12 209.46"><defs><linearGradient id="DOLLY_ERROR_76" x1="-615.2" y1="-178" x2="-465.5" y2="-28.3" gradientTransform="translate(-434.47 1.18) rotate(180)" gradientUnits="userSpaceOnUse"><stop offset="0" stop-color="#e61673"/><stop offset="0.48" stop-color="#aa6aae"/><stop offset="0.83" stop-color="#83a1d5"/><stop offset="1" stop-color="#74b6e4"/></linearGradient></defs><g><g><path fill="url(#DOLLY_ERROR_76)" d="M0,104.08a37.25,37.25,0,0,0,22.52,34.23,37.26,37.26,0,0,0,49.8,48.11,37.27,37.27,0,0,0,68.62.65,37.27,37.27,0,0,0,48.35-48.62,37.28,37.28,0,0,0,.16-68.66,37.27,37.27,0,0,0-48.82-48.08,37.27,37.27,0,0,0-68,.65A37.27,37.27,0,0,0,22.36,69.93,37.26,37.26,0,0,0,0,104.08Z"/><path fill="#fff" d="M54.75,120c-.06,4.41-4.23,5.36-8.59,4.74s-9.62-4.94-7.82-19.19c1.13-9,12-26.78,21.09-26.78a40.41,40.41,0,0,0-4.27,15.62C54.84,100.73,54.9,108.12,54.75,120Z"/><path fill="#fff" d="M155.82,120c.06,4.41,4.22,5.36,8.58,4.74s9.63-4.94,7.83-19.19c-1.14-9-12-26.78-21.09-26.78a40.41,40.41,0,0,1,4.27,15.62C155.73,100.73,155.67,108.12,155.82,120Z"/><path fill="#fff" d="M145.36,78.29a18,18,0,0,1-25.69-2.81A18,18,0,0,1,90.94,75a18,18,0,0,1-25.36,3.75A44.74,44.74,0,0,0,60.67,99.2v27.6a44.93,44.93,0,0,0,40.12,44.66v-6.67l-7.7-4.16a2.5,2.5,0,0,1,2.38-4.4l7.86,4.25,8.46-4.28a2.5,2.5,0,1,1,2.25,4.46l-8.25,4.18v6.88a44.92,44.92,0,0,0,44.73-44.92V99.2A44.75,44.75,0,0,0,145.36,78.29Zm-52.63,32.3a4.64,4.64,0,0,1-7.39,5.6l-2.26-3-2.28,3a4.63,4.63,0,1,1-7.36-5.63l3.82-5-3.8-5a4.64,4.64,0,0,1,7.39-5.6l2.26,3,2.27-3a4.64,4.64,0,0,1,7.37,5.63l-3.83,5Zm42.14,0a4.64,4.64,0,0,1-7.39,5.6l-2.26-3-2.27,3a4.64,4.64,0,1,1-7.37-5.63l3.83-5-3.81-5a4.64,4.64,0,0,1,7.39-5.6l2.26,3,2.28-3a4.63,4.63,0,1,1,7.36,5.63l-3.83,5Z"/></g></g></svg>