<svg width="326" height="573" viewBox="0 0 326 573" fill="none" xmlns="http://www.w3.org/2000/svg">
    <path d="M5.11 333.732s2.3 7.931 8.725 13.8c0 0-4.283 6.346-3.33 10.153 0 0-17.133-8.487-5.394-24.033v.08z" fill="#707EFF"/>
    <path d="M61 550s6.266 5.314 11.58 4.917c0 0 1.427 10.47 8.328 17.687 0 0-5.314 1.745-12.294-2.775 0 0-8.407-10.153-7.535-19.75L61 550z" fill="#FE7E07"/>
    <path d="M247 544.936s6.266-5.314 11.58-4.918c0 0 1.428-10.469 8.328-17.687 0 0-5.314-1.745-12.294 2.776 0 0-8.407 10.152-7.535 19.749l-.079.08z" fill="#FD4438"/>
    <path d="M319.908 480.936s-6.266-5.314-11.58-4.918c0 0-1.427-10.469-8.328-17.687 0 0 5.314-1.745 12.294 2.776 0 0 8.407 10.152 7.535 19.749l.079.08z" fill="#384CFF"/>
    <path d="M295.366 234.211s-3.572 6.29.837 12.741c4.409 6.452 23.607 5.162 26.788 12.258 0 0 4.297-5.698-2.902-10.376-7.2-4.677-21.152-5.376-24.723-14.623z" fill="#DB3031"/>
    <path d="M321.123 200s5.343 6.751-1.817 15.844c-7.105 9.092-26.106 9.583-25.28 23.63 0 0 3.745-4.247 15.531-8.657 11.787-4.41 14.706-12.36 15.862-17.913 1.157-5.499-4.351-12.904-4.351-12.904h.055zM302.96 265.261l3.757 4.482-4.822 5.257s16.259-4.427 20.24-8.633c3.98-4.15 5.102-10.182.168-15.051 0 0 3.7 12.285-19.287 13.945h-.056z" fill="#FF5959"/>
    <path d="M6.231 133.258s-8.378 15.115 2.256 26.416c10.587 11.302 26.33 12.91 25.04 26.003 0 0-7.963-4.962-15.236-9.602-7.273-4.64-28.815-23.706-12.06-42.771v-.046z" fill="#1FAD3E"/>
    <path d="M32.501 101c-2.021 2.693-4.64 5.479-7.993 8.358C4.616 126.446-2.045 137.172.528 150.731c0 0-.047-13.837 25.174-33.711 7.029-5.526 11.071-11.005 13.276-16.02h-6.523.046z" fill="#76EF83"/>
    <path d="M8.884 200.523s-1.9 5.834 11.864 10.3C34.466 215.29 32.103 226 32.103 226l-2.781-3.783-3.29 3.737s1.065-5.241-6.443-7.747C9.672 214.88 5.871 210.823 5.408 205.4c-.417-5.469 3.43-4.922 3.43-4.922l.046.045z" fill="#1FAD3E"/>
    <path d="M7.934 211.215s-3.383-6.645 5.576-11.169c8.96-4.524 25.878-4.335 20.35-19.745 0 0-2.955 7.304-14.154 9.943-11.2 2.592-18.444 11.781-11.772 20.971z" fill="#76EF83"/>
    <path d="M51 22.936s6.266-5.314 11.58-4.918c0 0 1.427-10.47 8.328-17.687 0 0-5.314-1.745-12.294 2.776 0 0-8.407 10.152-7.535 19.75l-.079.079z" fill="#707EFF"/>
    <path d="M304.906 24.534s6.372 11.496-1.715 20.092c-8.053 8.595-20.026 9.818-19.046 19.776 0 0 6.057-3.773 11.589-7.303 5.531-3.529 21.916-18.03 9.172-32.53v-.035z" fill="#1F35FF"/>
    <path d="M284.926 0c1.538 2.048 3.529 4.167 6.08 6.357 15.129 12.996 20.195 21.154 18.238 31.466 0 0 .035-10.524-19.146-25.639C284.752 7.981 281.677 3.814 280 0h4.961-.035z" fill="#707EFF"/>
    <path d="M302.889 75.693s1.445 4.437-9.024 7.834c-10.433 3.397-8.636 11.543-8.636 11.543l2.115-2.877 2.503 2.842s-.811-3.986 4.899-5.893c7.544-2.53 10.434-5.615 10.786-9.74.318-4.16-2.608-3.743-2.608-3.743l-.035.034z" fill="#1F35FF"/>
    <path d="M303.611 83.825s2.574-5.054-4.241-8.494c-6.814-3.441-19.681-3.298-15.477-15.018 0 0 2.247 5.556 10.765 7.563 8.518 1.97 14.028 8.96 8.953 15.949z" fill="#707EFF"/>
</svg>
