<svg xmlns="http://www.w3.org/2000/svg" xmlns:xlink="http://www.w3.org/1999/xlink" viewBox="0 0 213.83 249.85"><defs><linearGradient id="DOLLY_MAINTENCE" x1="-3794.03" y1="-316.25" x2="-3644.32" y2="-166.55" gradientTransform="translate(-3612.44 -137.07) rotate(180)" gradientUnits="userSpaceOnUse"><stop offset="0" stop-color="#e75e1f"/><stop offset="0.22" stop-color="#e77626"/><stop offset="0.74" stop-color="#e8ad36"/><stop offset="1" stop-color="#e8c23c"/></linearGradient></defs><g id="圖層_2" data-name="圖層 2"><g id="圖層_1-2" data-name="圖層 1"><path fill="url(#DOLLY_MAINTENCE)" d="M.86,104.08a37.25,37.25,0,0,0,22.52,34.23,37.26,37.26,0,0,0,49.8,48.11,37.27,37.27,0,0,0,68.62.65,37.27,37.27,0,0,0,48.35-48.62,37.28,37.28,0,0,0,.16-68.66,37.27,37.27,0,0,0-48.82-48.08,37.27,37.27,0,0,0-68,.65A37.27,37.27,0,0,0,23.22,69.93,37.26,37.26,0,0,0,.86,104.08Z"/><path fill="#fff" d="M134.73,82.42a18,18,0,0,1-14.2-6.94A18,18,0,0,1,91.8,75a18,18,0,0,1-25.36,3.75A44.74,44.74,0,0,0,61.53,99.2v27.6a44.93,44.93,0,0,0,40.11,44.66v-6.67L94,160.63a2.5,2.5,0,0,1,2.38-4.4l7.85,4.25,8.46-4.28a2.5,2.5,0,0,1,2.26,4.46l-8.26,4.18v6.88a44.92,44.92,0,0,0,44.74-44.92V99.2a44.75,44.75,0,0,0-5.16-20.91A18,18,0,0,1,134.73,82.42Zm-41.37,28A9.4,9.4,0,0,1,84,119.8h0a9.41,9.41,0,0,1-9.41-9.4v-9.69A9.41,9.41,0,0,1,84,91.31h0a9.4,9.4,0,0,1,9.41,9.4Zm42.14,0a9.4,9.4,0,0,1-9.41,9.4h0a9.4,9.4,0,0,1-9.4-9.4v-9.69a9.4,9.4,0,0,1,9.4-9.4h0a9.4,9.4,0,0,1,9.41,9.4Z"/><path fill="#fff" d="M55.6,120c-.05,4.41-4.22,5.36-8.58,4.74s-9.62-4.94-7.82-19.19c1.13-9,12-26.78,21.09-26.78A40.32,40.32,0,0,0,56,94.39C55.7,100.73,55.76,108.12,55.6,120Z"/><path fill="#fff" d="M156.68,120c.06,4.41,4.22,5.36,8.58,4.74s9.62-4.94,7.82-19.19c-1.13-9-12-26.78-21.08-26.78a40.41,40.41,0,0,1,4.27,15.62C156.59,100.73,156.53,108.12,156.68,120Z"/><rect fill="#e1ded8" x="32.43" y="191.57" width="151.66" height="6.61"/><rect fill="#7c7a76" x="32.43" y="191.57" width="15.19" height="6.61"/><rect fill="#7c7a76" x="63.1" y="191.57" width="15.19" height="6.61"/><rect fill="#7c7a76" x="93.77" y="191.57" width="15.19" height="6.61"/><rect fill="#7c7a76" x="124.44" y="191.57" width="15.19" height="6.61"/><rect fill="#7c7a76" x="155.11" y="191.57" width="15.19" height="6.61"/><rect fill="#df752f" y="243.12" width="56.04" height="6.73"/><rect fill="#b45e24" x="28.02" y="243.12" width="28.02" height="6.73"/><polygon fill="#ef8132" points="24.66 185.06 8.07 243.12 49.32 243.12 32.06 185.06 24.66 185.06"/><polygon fill="#d5732a" points="49.32 243.12 23.44 243.12 28.02 185.06 32.06 185.06 49.32 243.12"/><polygon fill="#fffcf4" points="38.55 206.91 18.41 206.91 20.74 198.76 36.13 198.76 38.55 206.91"/><polygon fill="#fffcf4" points="43.65 224.06 13.52 224.06 15.84 215.92 41.23 215.92 43.65 224.06"/><polygon fill="#c2c2c2" points="38.55 206.91 26.3 206.91 26.94 198.76 36.13 198.76 38.55 206.91"/><polygon fill="#c2c2c2" points="43.65 224.06 24.94 224.06 25.58 215.92 41.23 215.92 43.65 224.06"/><rect fill="#df752f" x="157.79" y="243.12" width="56.04" height="6.73"/><rect fill="#b45e24" x="185.81" y="243.12" width="28.02" height="6.73"/><polygon fill="#ef8132" points="182.45 185.06 165.86 243.12 207.11 243.12 189.85 185.06 182.45 185.06"/><polygon fill="#d5732a" points="207.11 243.12 181.23 243.12 185.81 185.06 189.85 185.06 207.11 243.12"/><polygon fill="#fffcf4" points="196.34 206.91 176.2 206.91 178.53 198.76 193.92 198.76 196.34 206.91"/><polygon fill="#fffcf4" points="201.44 224.06 171.31 224.06 173.63 215.92 199.02 215.92 201.44 224.06"/><polygon fill="#c2c2c2" points="196.34 206.91 184.09 206.91 184.73 198.76 193.92 198.76 196.34 206.91"/><polygon fill="#c2c2c2" points="201.44 224.06 182.73 224.06 183.37 215.92 199.02 215.92 201.44 224.06"/></g></g></svg>