<svg width="28" height="29" viewBox="0 0 28 29" fill="none" xmlns="http://www.w3.org/2000/svg">
<rect width="28" height="29" rx="4" fill="#FDC64A"/>
<ellipse cx="12.4717" cy="16.9186" rx="8.5" ry="9" transform="rotate(14.689 12.4717 16.9186)" fill="#91939E"/>
<ellipse cx="11.1475" cy="16.0547" rx="8" ry="8.5" transform="rotate(14.689 11.1475 16.0547)" fill="#FEFEFE"/>
<path d="M13.2794 9.89388L11.7964 17.2585L10.9587 17.0389L13.2794 9.89388Z" fill="#BE1F1F"/>
<circle cx="11.3776" cy="17.1488" r="0.5" transform="rotate(14.689 11.3776 17.1488)" fill="#BE1F1F"/>
<path d="M21.0424 10.2217L22.1652 12.2024L19.7974 13.2175L18.9553 11.732L21.0424 10.2217Z" fill="#FEFEFE"/>
<ellipse cx="0.860005" cy="0.592804" rx="0.860005" ry="0.592804" transform="matrix(0.464095 0.885785 -0.876034 0.482249 19.5764 11.3782)" fill="#FEFEFE"/>
<path d="M22.111 8.30762L24.3566 12.269L21.906 13.0039L20.2218 10.0328L22.111 8.30762Z" fill="#91939E"/>
<ellipse cx="1.71947" cy="0.797728" rx="1.71947" ry="0.797728" transform="matrix(0.473655 0.88071 -0.878946 0.476922 21.0569 9.55591)" fill="#91939E"/>
<ellipse cx="2.32669" cy="1.53682" rx="2.32669" ry="1.53682" transform="matrix(0.473655 0.88071 -0.878946 0.476922 23.7033 7.40503)" fill="#FEFEFE"/>
<circle cx="15.0309" cy="5.18415" r="2.75" transform="rotate(14.689 15.0309 5.18415)" stroke="#91939E" stroke-width="0.5"/>
<path d="M13.8395 6.20654L15.1416 6.58282L14.5159 8.13801L13.5393 7.85581L13.8395 6.20654Z" fill="#FEFEFE"/>
<ellipse cx="0.512026" cy="0.386118" rx="0.512026" ry="0.386118" transform="matrix(0.950017 0.312198 -0.28855 0.957465 13.6677 7.40845)" fill="#FEFEFE"/>
<path d="M13.4232 5.20581L16.0275 5.95835L15.333 7.14094L13.3798 6.57654L13.4232 5.20581Z" fill="#91939E"/>
<ellipse cx="1.02359" cy="0.30491" rx="1.02359" ry="0.30491" transform="matrix(0.954679 0.297638 -0.296529 0.955024 13.4815 6.19849)" fill="#91939E"/>
<ellipse cx="1.38507" cy="0.450401" rx="1.38507" ry="0.450401" transform="matrix(0.954679 0.297638 -0.296529 0.955024 13.5209 4.80957)" fill="#FEFEFE"/>
</svg>
